{"title":"130922 Running Man E164 [1080p]","uid":8959839,"size":4907039871,"categoryP":"video","categoryS":"hd___tv_shows","magnet":"?xt=urn:btih:196382747efde119bfc1f22cf924193e4e0f48b5&amp;dn=130922+Running+Man+E164+%5B1080p%5D&amp;tr=udp%3A%2F%2Ftracker.openbittorrent.com%3A80&amp;tr=udp%3A%2F%2Fopen.demonii.com%3A1337&amp;tr=udp%3A%2F%2Ftracker.coppersurfer.tk%3A6969&amp;tr=udp%3A%2F%2Fexodus.desync.com%3A6969","seeders":1,"leechers":0,"uploader":"ih8n00bs","files":2,"time":1380076421,"description":"Title    : Running Man #129 Episode 164\nAir Date : 2013.09.22 \nGuests   : Kim Hae-sook, Yoo Ah-in\n\nxxx English subtitles provided by DramaFever xxx\n\n=================================================================\n Format                    : Matroska v4/v2\n File size                 : 5.06 GiB\n Duration                  : 1h 31mn\n Overall bit rate          : 7.917 Mbps\n Writing application       : mkvmerge v6.3.0\n Writing library           : libebml v1.3.0 + libmatroska v1.4.0\n\nVideo\n Format                    : AVC\n Format profile            : &lt;a class=&quot;__cf_email__&quot; href=&quot;/cdn-cgi/l/email-protection&quot; data-cfemail=&quot;8bc3e2ece3cbc7bfa5ba&quot;&gt;[email&amp;#160;protected]&lt;/a&gt;&lt;script cf-hash='f9e31' type=&quot;text/javascript&quot;&gt;\n/* &lt;![CDATA[ */!function(){try{var t=&quot;currentScript&quot;in document?document.currentScript:function(){for(var t=document.getElementsByTagName(&quot;script&quot;),e=t.length;e--;)if(t[e].getAttribute(&quot;cf-hash&quot;))return t[e]}();if(t&amp;&amp;t.previousSibling){var e,r,n,i,c=t.previousSibling,a=c.getAttribute(&quot;data-cfemail&quot;);if(a){for(e=&quot;&quot;,r=parseInt(a.substr(0,2),16),n=2;a.length-n;n+=2)i=parseInt(a.substr(n,2),16)^r,e+=String.fromCharCode(i);e=document.createTextNode(e),c.parentNode.replaceChild(e,c)}}}catch(u){}}();/* ]]&gt; */&lt;/script&gt;\n Format settings, ReFrames : 4 frames\n Codec ID                  : V_MPEG4/ISO/AVC\n Bit rate                  : 7.375 Mbps\n Width                     : 1920 pixels\n Height                    : 1080 pixels\n Display aspect ratio      : 16:9\n Frame rate mode           : Constant\n Frame rate                : 29.970 fps\n Scan type                 : Progressive\n Bits/(Pixel*Frame)        : 0.119\n Stream size               : 4.71 GiB (93%)\n Writing library           : x264 core 135 r2345 f0c1c53\n\nAudio\n Format                    : AC-3\n Format/Info               : Audio Coding 3\n Mode extension            : CM (complete main)\n Codec ID                  : A_AC3\n Bit rate mode             : Constant\n Bit rate                  : 384 Kbps\n Channel(s)                               : 2 channels\n Channel positions         : Front: L R\n Sampling rate             : 48.0 KHz\n Bit depth                 : 16 bits\n Compression mode          : Lossy\n Stream size               : 251 MiB (5%)\n=================================================================","torrent":{"xt":"urn:btih:196382747efde119bfc1f22cf924193e4e0f48b5","amp;dn":"130922+Running+Man+E164+%5B1080p%5D","amp;tr":["udp%3A%2F%2Ftracker.openbittorrent.com%3A80","udp%3A%2F%2Fopen.demonii.com%3A1337","udp%3A%2F%2Ftracker.coppersurfer.tk%3A6969","udp%3A%2F%2Fexodus.desync.com%3A6969"],"infoHash":"196382747efde119bfc1f22cf924193e4e0f48b5","infoHashBuffer":{"type":"Buffer","data":[25,99,130,116,126,253,225,25,191,193,242,44,249,36,25,62,78,15,72,181]},"announce":[],"urlList":[]}}